{"title":"Thunder Road  (Crime Thriller 1958)  Robert Mitchum, Gene Barry ","uid":9328989,"size":449277361,"categoryP":"video","categoryS":"movies","magnet":"?xt=urn:btih:5f8a9a79ef11ecde1096bb5471d886f99b1965a4&amp;dn=Thunder+Road++%28Crime+Thriller+1958%29++Robert+Mitchum%2C+Gene+Barry+&amp;tr=udp%3A%2F%2Ftracker.openbittorrent.com%3A80&amp;tr=udp%3A%2F%2Fopen.demonii.com%3A1337&amp;tr=udp%3A%2F%2Ftracker.coppersurfer.tk%3A6969&amp;tr=udp%3A%2F%2Fexodus.desync.com%3A6969","seeders":0,"leechers":0,"uploader":"BurtonW","files":1,"time":1386695052,"description":" &lt;a href=&quot;http://www.imdb.com/title/tt0052293/?ref_=fn_al_tt_1&quot; rel=&quot;nofollow&quot; target=&quot;_NEW&quot;&gt;http://www.imdb.com/title/tt0052293/?ref_=fn_al_tt_1&lt;/a&gt;\n\n\nA good quality Black &amp; White film.\n\n\nNo subtitles!\n\n\nStoryline:\n\nA veteran comes home from the Korean War to the mountains and takes over the family moonshining business. He has to battle big-city gangsters who are trying to take over the business and the police who are trying to put him in prison.\n\n\nTechnical info:\n\n\nGeneral:\n\nComplete name                  : Thunder Road  (Crime Thriller 1958)  Robert Mitchum, Gene Barry &amp; Jacques Aubuchon.mp4\n\nFormat                         : MPEG-4\nFormat profile                 : Base Media / Version 2\nCodec ID                       : mp42\nFile size                      : 428 MiB\nDuration                       : 1h 35mn\nOverall bit rate mode          : Variable\nOverall bit rate               : 625 Kbps\nEncoded date                   : UTC 2013-12-08 08:22:48\nTagged date                    : UTC 2013-12-08 10:23:47\n\n\nVideo:\n\nID                             : 1\nFormat                         : AVC\nFormat/Info                    : Advanced Video Codec\nFormat profile                 : &lt;a class=&quot;__cf_email__&quot; href=&quot;/cdn-cgi/l/email-protection&quot; data-cfemail=&quot;561b373f38161a627866&quot;&gt;[email&amp;#160;protected]&lt;/a&gt;&lt;script data-cfhash='f9e31' type=&quot;text/javascript&quot;&gt;\n/* &lt;![CDATA[ */!function(){try{var t=&quot;currentScript&quot;in document?document.currentScript:function(){for(var t=document.getElementsByTagName(&quot;script&quot;),e=t.length;e--;)if(t[e].getAttribute(&quot;data-cfhash&quot;))return t[e]}();if(t&amp;&amp;t.previousSibling){var e,r,n,i,c=t.previousSibling,a=c.getAttribute(&quot;data-cfemail&quot;);if(a){for(e=&quot;&quot;,r=parseInt(a.substr(0,2),16),n=2;a.length-n;n+=2)i=parseInt(a.substr(n,2),16)^r,e+=String.fromCharCode(i);e=document.createTextNode(e),c.parentNode.replaceChild(e,c)}t.parentNode.removeChild(t);}}catch(u){}}()/* ]]&gt; */&lt;/script&gt;\nFormat settings, CABAC         : Yes\nFormat settings, ReFrames      : 8 frames\nCodec ID                       : avc1\nCodec ID/Info                  : Advanced Video Coding\nDuration                       : 1h 35mn\nBit rate mode                  : Variable\nBit rate                       : 464 Kbps\nWidth                          : 656 pixels\nHeight                         : 480 pixels\nDisplay aspect ratio           : 4:3\nFrame rate mode                : Variable\nFrame rate                     : 23.976 fps\nMinimum frame rate             : 23.974 fps\nMaximum frame rate             : 23.981 fps\nColor space                    : YUV\nChroma subsampling             : 4:2:0\nBit depth                      : 8 bits\nScan type                      : Progressive\nBits/(Pixel*Frame)             : 0.061\nStream size                    : 318 MiB (74%)\nWriting library                : x264 core 130 r2273 b3065e6\nEncoding settings              : Deleted\nEncoded date                   : UTC 2013-12-08 08:22:48\nTagged date                    : UTC 2013-12-08 10:23:47\nColor primaries                : BT.601 NTSC\nTransfer characteristics       : BT.709\nMatrix coefficients            : BT.601\n\nAudio:\n\nID                             : 2\nFormat                         : AAC\nFormat/Info                    : Advanced Audio Codec\nFormat profile                 : LC\nCodec ID                       : 40\nDuration                       : 1h 33mn\nBit rate mode                  : Variable\nBit rate                       : 160 Kbps\nMaximum bit rate               : 321 Kbps\nChannel(s)                     : 2 channels\nChannel positions              : Front: L R\nSampling rate                  : 48.0 KHz\nCompression mode               : Lossy\nDelay relative to video        : 83ms\nStream size                    : 107 MiB (25%)\nEncoded date                   : UTC 2013-12-08 08:22:48\nTagged date                    : UTC 2013-12-08 10:23:46\n\n","torrent":{"xt":"urn:btih:5f8a9a79ef11ecde1096bb5471d886f99b1965a4","amp;dn":"Thunder+Road++%28Crime+Thriller+1958%29++Robert+Mitchum%2C+Gene+Barry+","amp;tr":["udp%3A%2F%2Ftracker.openbittorrent.com%3A80","udp%3A%2F%2Fopen.demonii.com%3A1337","udp%3A%2F%2Ftracker.coppersurfer.tk%3A6969","udp%3A%2F%2Fexodus.desync.com%3A6969"],"infoHash":"5f8a9a79ef11ecde1096bb5471d886f99b1965a4","infoHashBuffer":{"type":"Buffer","data":[95,138,154,121,239,17,236,222,16,150,187,84,113,216,134,249,155,25,101,164]},"announce":[],"urlList":[]}}